<svg id="Layer_1" data-name="Layer 1" xmlns="http://www.w3.org/2000/svg" xmlns:xlink="http://www.w3.org/1999/xlink" viewBox="0 0 1000.8 461.6"><defs><style>.cls-1{fill:#231f20;}.cls-2{fill:#414042;}.cls-3,.cls-9{fill:#fff;}.cls-4,.cls-5{fill:#be1e2d;}.cls-4{opacity:0.07;}.cls-6,.cls-7,.cls-8{fill:none;stroke-linecap:round;stroke-linejoin:round;stroke-width:8px;}.cls-6{stroke:url(#linear-gradient);}.cls-7{stroke-dasharray:0 50.01;stroke:url(#linear-gradient-2);}.cls-8{stroke:url(#linear-gradient-3);}.cls-9{font-size:176.67px;font-family:Anurati-Regular, Anurati;letter-spacing:-0.11em;}.cls-10,.cls-12{font-family:Blanka-Regular, Blanka;}.cls-10,.cls-11{letter-spacing:-0.11em;}.cls-12,.cls-13{letter-spacing:-0.11em;}</style><linearGradient id="linear-gradient" x1="84.24" y1="144.13" x2="583.66" y2="144.13" gradientUnits="userSpaceOnUse"><stop offset="0"/><stop offset="1" stop-color="#fff"/></linearGradient><linearGradient id="linear-gradient-2" x1="84.24" y1="286.36" x2="583.66" y2="286.36" xlink:href="#linear-gradient"/><linearGradient id="linear-gradient-3" x1="84.24" y1="349.21" x2="583.66" y2="349.21" xlink:href="#linear-gradient"/></defs><rect class="cls-1" x="-2.1" y="105.85" width="201.38" height="133.36" transform="translate(271.12 73.94) rotate(90)"/><rect class="cls-1" x="368.73" y="69.28" width="133.36" height="541.23" transform="translate(775.31 -95.52) rotate(90)"/><path class="cls-1" d="M31.68,273.22A133.12,133.12,0,0,1,164.8,140.1V273.22H297.91a133.12,133.12,0,1,1-266.23,0Z"/><rect class="cls-2" x="639.1" y="273.22" width="66.93" height="133.36"/><rect class="cls-3" x="639.1" y="361.96" width="22.31" height="22.31"/><rect class="cls-3" x="661.41" y="384.27" width="22.31" height="22.31"/><rect class="cls-3" x="683.72" y="361.96" width="22.31" height="22.31"/><rect class="cls-3" x="639.1" y="317.59" width="22.31" height="22.31"/><rect class="cls-3" x="661.41" y="339.9" width="22.31" height="22.31"/><rect class="cls-3" x="683.72" y="317.59" width="22.31" height="22.31"/><rect class="cls-3" x="639.1" y="273.22" width="22.31" height="22.31"/><rect class="cls-3" x="661.41" y="295.53" width="22.31" height="22.31"/><rect class="cls-3" x="683.72" y="273.22" width="22.31" height="22.31"/><circle class="cls-4" cx="97.91" cy="117.41" r="14.67"/><circle class="cls-5" cx="607.38" cy="343.41" r="14.67"/><line class="cls-6" x1="97.4" y1="144.13" x2="97.4" y2="144.13"/><path class="cls-7" d="M88.61,193.24c-5.15,86.4,38,248.51,466.58,161.14"/><line class="cls-8" x1="579.66" y1="349.21" x2="579.66" y2="349.21"/><text class="cls-9" transform="translate(59.65 406.57)">D<tspan class="cls-10" x="126.5" y="0">.</tspan><tspan class="cls-11" x="133.03" y="0" xml:space="preserve"> E </tspan><tspan class="cls-12" x="273.31" y="0">.</tspan><tspan x="279.84" y="0" xml:space="preserve"> F </tspan><tspan class="cls-12" x="420.3" y="0">. </tspan><tspan class="cls-13" x="450.86" y="0" xml:space="preserve"> I</tspan></text></svg>